<?xml version="1.0" standalone="no"?>
<!DOCTYPE svg PUBLIC "-//W3C//DTD SVG 20010904//EN"
 "http://www.w3.org/TR/2001/REC-SVG-20010904/DTD/svg10.dtd">
<svg version="1.0" xmlns="http://www.w3.org/2000/svg"
 width="1024.000000pt" height="1024.000000pt" viewBox="0 0 1024.000000 1024.000000"
 preserveAspectRatio="xMidYMid meet">

<g transform="translate(0.000000,1024.000000) scale(0.100000,-0.100000)"
fill="#000000" stroke="none">
<path d="M4250 7089 c-347 -15 -875 -58 -1040 -85 -273 -44 -489 -173 -650
-385 -130 -173 -189 -350 -197 -592 -8 -227 24 -381 122 -582 73 -151 159
-269 295 -405 132 -132 238 -206 415 -291 225 -107 403 -152 605 -152 149 0
221 14 326 64 87 41 164 119 329 334 80 105 201 262 269 350 68 88 165 214
214 280 133 177 149 191 207 168 10 -3 178 -220 373 -482 196 -262 386 -505
422 -541 124 -124 259 -172 480 -173 155 0 260 19 429 78 249 87 418 192 594
367 148 148 235 274 312 451 79 182 100 287 99 512 0 199 -11 257 -75 411 -89
214 -291 418 -508 513 -167 74 -328 98 -936 141 -418 29 -1610 40 -2085 19z
m1960 -334 c435 -24 726 -55 866 -90 106 -27 217 -89 293 -164 130 -128 172
-219 136 -295 -21 -44 -59 -66 -115 -66 -38 0 -46 6 -138 98 -142 145 -186
161 -547 201 -418 47 -778 61 -1610 61 l-691 0 -94 -77 c-52 -42 -144 -120
-205 -173 -60 -53 -153 -132 -205 -176 -52 -43 -164 -139 -250 -213 -85 -74
-168 -142 -185 -152 -39 -25 -111 -25 -151 0 -32 20 -64 74 -64 110 0 53 57
127 155 203 113 87 526 440 521 445 -15 16 -657 -54 -751 -82 -71 -20 -136
-66 -212 -151 -69 -76 -104 -98 -153 -96 -40 1 -68 18 -90 55 -47 77 -4 185
121 301 93 85 186 138 293 166 154 39 576 80 1026 100 135 6 277 12 315 14
191 10 1480 -4 1735 -19z m114 -666 c43 -29 190 -206 430 -515 254 -326 232
-303 276 -297 75 10 109 -71 51 -120 -40 -33 -230 -129 -311 -157 -112 -38
-231 -60 -355 -66 l-120 -5 58 55 c66 64 155 109 305 156 56 18 102 36 102 39
0 7 -189 259 -374 499 -60 78 -115 142 -122 142 -7 0 -34 -18 -60 -41 -44 -38
-51 -41 -92 -36 -60 7 -102 47 -102 98 0 31 9 49 49 96 26 32 75 84 109 116
69 65 103 73 156 36z m-3032 -849 c56 -21 175 -65 263 -95 88 -31 186 -71 218
-87 51 -28 137 -106 137 -125 0 -14 -160 -2 -265 18 -133 27 -259 69 -380 130
-135 67 -162 93 -156 149 3 20 39 50 61 50 10 0 65 -18 122 -40z"/>
<path d="M5029 5310 c-39 -50 -104 -136 -143 -190 -120 -166 -338 -452 -397
-520 -31 -36 -81 -85 -113 -109 -75 -58 -211 -125 -297 -148 -38 -9 -69 -20
-69 -24 0 -23 2171 -21 2195 2 5 5 1 9 -13 9 -66 0 -261 88 -353 159 -79 61
-134 129 -453 556 -136 182 -255 336 -266 343 -17 12 -25 5 -91 -78z"/>
<path d="M6673 3765 c-44 -19 -53 -59 -53 -240 l0 -149 -22 22 c-12 12 -72 83
-132 159 -112 139 -161 183 -201 183 -47 0 -49 -9 -49 -380 l-1 -348 24 -26
c30 -32 87 -35 122 -7 23 18 24 26 29 181 l5 163 70 -85 c39 -46 102 -125 140
-176 90 -117 124 -134 170 -87 l25 24 0 360 c0 359 0 360 -22 384 -29 32 -65
39 -105 22z"/>
<path d="M2831 3744 c-17 -14 -31 -29 -31 -34 0 -5 -72 -154 -160 -333 -88
-179 -160 -337 -160 -351 0 -39 41 -76 83 -76 47 0 82 30 118 101 l29 59 175
0 175 0 29 -57 c38 -77 63 -98 113 -98 31 0 45 6 64 28 13 16 24 36 24 45 0
28 -322 691 -348 718 -32 31 -72 31 -111 -2z m109 -386 l42 -78 -91 0 c-50 0
-91 2 -91 5 0 19 83 166 90 159 4 -5 27 -44 50 -86z"/>
<path d="M3670 3750 c-11 -11 -22 -30 -25 -42 -3 -13 -5 -178 -3 -366 l3 -344
24 -19 c23 -19 38 -20 244 -17 l219 3 25 29 c32 37 26 90 -12 124 -25 21 -35
22 -176 22 l-149 0 0 290 0 291 -25 24 c-31 32 -96 34 -125 5z"/>
<path d="M4940 3763 c-8 -3 -23 -12 -32 -21 -17 -14 -18 -45 -18 -379 l0 -364
25 -24 c34 -35 78 -33 116 4 28 28 29 33 29 119 l0 90 128 4 c114 3 132 6 178
30 95 50 148 139 147 249 0 119 -63 215 -173 268 -52 24 -65 26 -220 28 -91 1
-172 0 -180 -4z m330 -188 c67 -35 82 -119 31 -174 -29 -31 -29 -31 -135 -31
l-106 0 0 110 0 110 90 0 c61 0 100 -5 120 -15z"/>
<path d="M5805 3745 l-25 -24 0 -355 0 -355 23 -26 c33 -39 91 -39 123 -1 l24
27 0 359 0 359 -26 20 c-37 29 -89 27 -119 -4z"/>
<path d="M7183 3755 c-17 -7 -36 -22 -42 -34 -7 -13 -11 -134 -11 -353 0 -313
1 -335 20 -365 11 -18 30 -35 43 -38 12 -4 121 -5 241 -3 l218 3 24 28 c32 37
31 77 -2 111 -24 23 -34 26 -98 26 -39 0 -115 3 -168 7 l-98 6 0 63 0 62 126
4 c124 3 126 3 150 31 15 17 24 41 24 60 0 65 -27 77 -179 77 l-121 0 0 75 0
75 155 0 c174 0 203 8 225 60 16 39 -1 85 -41 105 -39 21 -419 21 -466 0z"/>
<path d="M3900 2575 c-10 -12 -10 -22 1 -47 21 -53 108 -230 120 -245 15 -17
53 -17 68 1 18 22 121 258 121 278 0 23 -47 36 -65 17 -8 -8 -32 -54 -54 -103
l-39 -90 -25 55 c-61 137 -69 149 -92 149 -12 0 -28 -7 -35 -15z"/>
<path d="M4412 2578 c-8 -8 -12 -53 -12 -149 0 -147 6 -164 52 -157 23 3 23 4
23 158 l0 155 -25 3 c-14 2 -31 -3 -38 -10z"/>
<path d="M4744 2580 c-29 -12 -64 -58 -64 -85 0 -52 73 -105 145 -105 39 0 48
-22 16 -40 -29 -15 -52 -12 -96 10 -39 20 -39 20 -59 0 -20 -19 -20 -20 0 -41
81 -89 254 -48 254 61 0 38 -49 75 -117 89 -35 6 -63 16 -63 20 0 20 31 33 62
27 71 -15 93 -12 96 11 7 47 -106 81 -174 53z"/>
<path d="M5142 2578 c-17 -17 -17 -279 0 -296 7 -7 22 -12 35 -12 39 0 45 32
36 180 -8 134 -8 135 -33 138 -14 2 -31 -3 -38 -10z"/>
<path d="M5495 2576 c-101 -44 -125 -178 -46 -257 65 -65 154 -65 225 1 41 38
41 39 41 109 0 64 -3 72 -30 102 -53 56 -125 73 -190 45z m114 -83 c12 -10 24
-34 27 -53 14 -88 -101 -128 -141 -49 -20 38 -19 62 6 93 25 31 75 35 108 9z"/>
<path d="M5934 2577 c-2 -7 -3 -78 -2 -157 l3 -145 26 -3 c37 -4 48 15 51 95
l3 71 66 -81 c46 -58 73 -83 90 -85 44 -5 50 14 47 163 -3 119 -5 139 -20 149
-13 8 -23 8 -35 0 -14 -8 -19 -29 -23 -88 l-5 -77 -31 33 c-17 18 -50 57 -73
86 -43 52 -85 69 -97 39z"/>
</g>
</svg>
